<svg width="80" height="80" viewBox="0 0 80 80" fill="none" xmlns="http://www.w3.org/2000/svg">
<path d="M11.8977 71.1725L5.64453 1.03809H74.3545L68.0945 71.1618L39.9577 78.9618L11.8977 71.1725Z" fill="#E44D26"/>
<path d="M40 73L62.7362 66.6962L68.0856 6.77246H40V73Z" fill="#F16529"/>
<path d="M39.9991 32.7844H28.6166L27.8303 23.9756H39.9991V15.3744H18.4297L18.6359 17.6819L20.7497 41.3863H39.9991V32.7844ZM39.9991 55.1238L39.9609 55.1344L30.3816 52.5469L29.7697 45.6875H21.1341L22.3391 59.1931L39.9597 64.0844L39.9991 64.0738V55.1238Z" fill="#EBEBEB"/>
<path d="M39.9688 32.7844V41.3863H50.5606L49.5625 52.5419L39.9688 55.1313V64.0806L57.6031 59.1931L57.7325 57.74L59.7538 35.0944L59.9631 32.7844H57.6456H39.9688ZM39.9688 15.3744V23.9756H60.7463L60.9188 22.0431L61.3112 17.6819L61.5169 15.3744H39.9688Z" fill="white"/>
</svg>
