<svg width="68" height="68" viewBox="0 0 68 68" fill="none" xmlns="http://www.w3.org/2000/svg">
<g opacity="0.05" filter="url(#filter0_dd_771_1405)">
<rect x="4" width="60" height="60" rx="5" fill="white"/>
</g>
<path d="M33.8543 29.2143C31.7171 27.6343 28.5143 24.8714 19.3314 24.8714V44.6543C28.5143 44.6543 31.7171 47.4171 33.8543 48.9971M33.8543 29.2143V48.9971M33.8543 29.2143C35.9914 27.6343 39.1943 24.8714 48.3771 24.8714V44.6543C39.1943 44.6543 35.9914 47.4171 33.8543 48.9971M39.5286 12.1543V19.1029M44.6057 12H25.5286C24.9956 11.9994 24.473 12.1478 24.02 12.4286L19 15.5543L24.02 18.6743C24.473 18.9551 24.9956 19.1035 25.5286 19.1029H44.6057C45.0804 19.1163 45.5529 19.0345 45.9954 18.8621C46.4379 18.6898 46.8413 18.4304 47.1818 18.0995C47.5223 17.7685 47.793 17.3726 47.9778 16.9352C48.1626 16.4978 48.2579 16.0277 48.2579 15.5529C48.2579 15.078 48.1626 14.608 47.9778 14.1706C47.793 13.7331 47.5223 13.3372 47.1818 13.0063C46.8413 12.6753 46.4379 12.4159 45.9954 12.2436C45.5529 12.0713 45.0804 11.9865 44.6057 12Z" stroke="#02D28F" stroke-width="3" stroke-linecap="round" stroke-linejoin="round"/>
<defs>
<filter id="filter0_dd_771_1405" x="0" y="0" width="68" height="68" filterUnits="userSpaceOnUse" color-interpolation-filters="sRGB">
<feFlood flood-opacity="0" result="BackgroundImageFix"/>
<feColorMatrix in="SourceAlpha" type="matrix" values="0 0 0 0 0 0 0 0 0 0 0 0 0 0 0 0 0 0 127 0" result="hardAlpha"/>
<feOffset dy="4"/>
<feGaussianBlur stdDeviation="2"/>
<feComposite in2="hardAlpha" operator="out"/>
<feColorMatrix type="matrix" values="0 0 0 0 0 0 0 0 0 0 0 0 0 0 0 0 0 0 0.25 0"/>
<feBlend mode="normal" in2="BackgroundImageFix" result="effect1_dropShadow_771_1405"/>
<feColorMatrix in="SourceAlpha" type="matrix" values="0 0 0 0 0 0 0 0 0 0 0 0 0 0 0 0 0 0 127 0" result="hardAlpha"/>
<feOffset dy="4"/>
<feGaussianBlur stdDeviation="2"/>
<feComposite in2="hardAlpha" operator="out"/>
<feColorMatrix type="matrix" values="0 0 0 0 0 0 0 0 0 0 0 0 0 0 0 0 0 0 0.25 0"/>
<feBlend mode="normal" in2="effect1_dropShadow_771_1405" result="effect2_dropShadow_771_1405"/>
<feBlend mode="normal" in="SourceGraphic" in2="effect2_dropShadow_771_1405" result="shape"/>
</filter>
</defs>
</svg>
