<svg width="30" height="30" viewBox="0 0 30 30" fill="none" xmlns="http://www.w3.org/2000/svg">
<path fill-rule="evenodd" clip-rule="evenodd" d="M3.75 10C3.75 8.3424 4.40848 6.75269 5.58058 5.58058C6.75269 4.40848 8.3424 3.75 10 3.75H20C21.6576 3.75 23.2473 4.40848 24.4194 5.58058C25.5915 6.75269 26.25 8.3424 26.25 10V20C26.25 21.6576 25.5915 23.2473 24.4194 24.4194C23.2473 25.5915 21.6576 26.25 20 26.25H10C8.3424 26.25 6.75269 25.5915 5.58058 24.4194C4.40848 23.2473 3.75 21.6576 3.75 20V10ZM10 6.25C9.00544 6.25 8.05161 6.64509 7.34835 7.34835C6.64509 8.05161 6.25 9.00544 6.25 10V20C6.25 20.9946 6.64509 21.9484 7.34835 22.6517C8.05161 23.3549 9.00544 23.75 10 23.75H20C20.9946 23.75 21.9484 23.3549 22.6517 22.6517C23.3549 21.9484 23.75 20.9946 23.75 20V10C23.75 9.00544 23.3549 8.05161 22.6517 7.34835C21.9484 6.64509 20.9946 6.25 20 6.25H10ZM19.4963 9.0175C19.4963 8.68598 19.6279 8.36804 19.8624 8.13362C20.0968 7.8992 20.4147 7.7675 20.7463 7.7675H20.7588C21.0903 7.7675 21.4082 7.8992 21.6426 8.13362C21.8771 8.36804 22.0088 8.68598 22.0088 9.0175C22.0088 9.34902 21.8771 9.66696 21.6426 9.90138C21.4082 10.1358 21.0903 10.2675 20.7588 10.2675H20.7463C20.4147 10.2675 20.0968 10.1358 19.8624 9.90138C19.6279 9.66696 19.4963 9.34902 19.4963 9.0175ZM15 11.25C14.0054 11.25 13.0516 11.6451 12.3483 12.3483C11.6451 13.0516 11.25 14.0054 11.25 15C11.25 15.9946 11.6451 16.9484 12.3483 17.6517C13.0516 18.3549 14.0054 18.75 15 18.75C15.9946 18.75 16.9484 18.3549 17.6517 17.6517C18.3549 16.9484 18.75 15.9946 18.75 15C18.75 14.0054 18.3549 13.0516 17.6517 12.3483C16.9484 11.6451 15.9946 11.25 15 11.25ZM8.75 15C8.75 13.3424 9.40848 11.7527 10.5806 10.5806C11.7527 9.40848 13.3424 8.75 15 8.75C16.6576 8.75 18.2473 9.40848 19.4194 10.5806C20.5915 11.7527 21.25 13.3424 21.25 15C21.25 16.6576 20.5915 18.2473 19.4194 19.4194C18.2473 20.5915 16.6576 21.25 15 21.25C13.3424 21.25 11.7527 20.5915 10.5806 19.4194C9.40848 18.2473 8.75 16.6576 8.75 15Z" fill="#02D28F"/>
</svg>
