<svg width="30" height="30" viewBox="0 0 30 30" fill="none" xmlns="http://www.w3.org/2000/svg">
<path d="M12.6213 14.1538C13.3063 13.8713 13.8313 13.4288 14.1537 12.9038C14.4762 12.3788 14.6775 11.6938 14.6775 10.9675C14.6775 10.2825 14.5563 9.6775 14.355 9.15375C14.1125 8.62875 13.79 8.22625 13.3463 7.94375C12.8817 7.63291 12.3619 7.41396 11.815 7.29875C11.1623 7.18344 10.5003 7.12945 9.8375 7.1375H2.5V22.46H9.96C10.645 22.46 11.3313 22.42 11.935 22.1775C12.5728 22.0248 13.1754 21.7511 13.71 21.3713C14.235 21.0488 14.6375 20.565 14.9188 19.96C15.2013 19.395 15.3625 18.71 15.3625 17.9038C15.3625 16.9363 15.1212 16.0888 14.6775 15.4438C14.1937 14.8788 13.5075 14.4363 12.6213 14.1538ZM5.9275 9.79875H9.1125C9.395 9.79875 9.6775 9.83875 9.96 9.83875C10.2425 9.83875 10.5238 10.0013 10.685 10.1213C10.9261 10.2351 11.1141 10.4375 11.21 10.6863C11.3313 10.9275 11.3713 11.21 11.3713 11.6138C11.3713 12.2175 11.2088 12.7425 10.8063 13.025C10.354 13.2898 9.83909 13.4288 9.315 13.4275H5.9275V9.79875ZM11.815 18.8713C11.6937 19.1538 11.5325 19.315 11.25 19.4763C11.0075 19.6375 10.725 19.7588 10.4437 19.7588C10.1612 19.7988 9.83875 19.7988 9.51625 19.7988H5.8875V15.645H9.59625C10.3225 15.645 10.8875 15.8075 11.3713 16.17C11.815 16.4925 12.0563 17.0975 12.0563 17.8638C11.9763 18.2663 11.9762 18.5888 11.815 18.8713ZM27.2587 15.2425C27.0962 14.4363 26.7337 13.75 26.29 13.145C25.8346 12.5362 25.2578 12.0284 24.5963 11.6538C23.8279 11.2877 22.9886 11.0948 22.1375 11.0888C21.29 11.0888 20.4837 11.2513 19.8787 11.5325C19.1897 11.811 18.5705 12.2378 18.065 12.7825C17.54 13.3075 17.1375 13.9113 16.855 14.6375C16.5588 15.3811 16.4081 16.1746 16.4112 16.975C16.4112 17.8225 16.5325 18.6288 16.815 19.355C17.0962 20.08 17.5 20.645 17.9437 21.21C18.4687 21.735 19.0312 22.1375 19.7575 22.42C20.5143 22.7216 21.3228 22.8724 22.1375 22.8638C23.3875 22.8638 24.475 22.5813 25.3625 22.0163C26.29 21.4525 26.895 20.4838 27.3388 19.1138H24.6762C24.5562 19.4363 24.2738 19.7988 23.8713 20.0813C23.4675 20.3638 22.9038 20.525 22.2988 20.525C21.4513 20.525 20.7663 20.2825 20.3238 19.8388C19.8788 19.395 19.5963 18.5488 19.5963 17.6613H27.5C27.5 16.815 27.4612 15.9675 27.2587 15.2425ZM19.4338 15.7675C19.4338 15.4838 19.555 15.2013 19.6362 14.96C19.7563 14.6775 19.8775 14.395 20.0788 14.1938C20.3212 13.9513 20.6438 13.71 20.9663 13.5488C21.2888 13.3863 21.6912 13.3863 22.055 13.3863C22.78 13.3863 23.4263 13.6288 23.7488 13.9925C24.0713 14.395 24.3538 14.96 24.4338 15.7675H19.4338ZM25.04 8.18625H18.79V9.7175H25.04V8.18625Z" fill="#02D28F"/>
</svg>
