<svg width="60" height="60" viewBox="0 0 60 60" fill="none" xmlns="http://www.w3.org/2000/svg">
<path fill-rule="evenodd" clip-rule="evenodd" d="M31.1823 25.16V27.9883C31.7746 27.0861 32.591 26.3532 33.5516 25.8612C34.5122 25.3692 35.5841 25.1351 36.6623 25.1817C42.4206 25.1817 43.6656 28.7817 43.6656 33.465V43H38.3323V34.5467C38.3323 32.53 37.9256 29.9367 34.7856 29.9367C31.7406 29.9367 31.2206 32.1317 31.2206 34.3967V43H25.904V25.16H31.1823ZM22.3323 20.6767C22.3316 21.205 22.175 21.7214 21.8821 22.1611C21.5892 22.6008 21.173 22.9442 20.6856 23.1483C20.1985 23.3508 19.6622 23.4038 19.1449 23.3005C18.6275 23.1972 18.1527 22.9423 17.7806 22.5683C17.4079 22.1941 17.1542 21.718 17.0513 21.1999C16.9484 20.6819 17.001 20.145 17.2025 19.6567C17.404 19.1685 17.7453 18.7507 18.1835 18.4559C18.6218 18.1611 19.1375 18.0025 19.6656 18C20.0167 18 20.3643 18.0693 20.6884 18.2039C21.0126 18.3386 21.307 18.5359 21.5548 18.7846C21.8026 19.0333 21.9988 19.3284 22.1322 19.6531C22.2656 19.9778 22.3336 20.3256 22.3323 20.6767Z" fill="#02D28F"/>
<path d="M22.3333 25.1816H17V43H22.3333V25.1816Z" fill="#02D28F"/>
</svg>
