<svg width="60" height="60" viewBox="0 0 60 60" fill="none" xmlns="http://www.w3.org/2000/svg">
<path d="M30 31.6666C32.7614 31.6666 35 29.428 35 26.6666C35 23.9052 32.7614 21.6666 30 21.6666C27.2386 21.6666 25 23.9052 25 26.6666C25 29.428 27.2386 31.6666 30 31.6666Z" stroke="#02D28F" stroke-width="3" stroke-linecap="round" stroke-linejoin="round"/>
<path d="M30.0013 13.3333C26.4651 13.3333 23.0737 14.7381 20.5732 17.2386C18.0727 19.739 16.668 23.1304 16.668 26.6666C16.668 29.82 17.338 31.8833 19.168 34.1666L30.0013 46.6666L40.8346 34.1666C42.6646 31.8833 43.3346 29.82 43.3346 26.6666C43.3346 23.1304 41.9299 19.739 39.4294 17.2386C36.9289 14.7381 33.5375 13.3333 30.0013 13.3333Z" stroke="#02D28F" stroke-width="3" stroke-linecap="round" stroke-linejoin="round"/>
</svg>
