<svg width="80" height="64" viewBox="0 0 80 64" fill="none" xmlns="http://www.w3.org/2000/svg">
<g clip-path="url(#clip0_819_178)">
<path d="M16.6163 0C12.0516 0 8.67375 3.99531 8.825 8.32812C8.97031 12.4906 8.78156 17.8822 7.42437 22.2787C6.06312 26.6881 3.76063 29.4812 0 29.84V33.8888C3.76063 34.2475 6.06312 37.0406 7.42437 41.4503C8.78156 45.8469 8.97031 51.2378 8.825 55.4006C8.67375 59.7328 12.0516 63.7288 16.6169 63.7288H63.3897C67.9547 63.7288 71.3316 59.7334 71.1803 55.4006C71.0353 51.2381 71.2238 45.8469 72.5809 41.4503C73.9431 37.0409 76.2394 34.2472 80 33.8888V29.84C76.2394 29.4812 73.9431 26.6881 72.5812 22.2787C71.2237 17.8828 71.0353 12.4909 71.1803 8.32812C71.3316 3.99594 67.9547 0 63.3897 0H16.6156H16.6163ZM54.2375 39.2291C54.2375 45.1953 49.7875 48.8134 42.4025 48.8134H29.8306C29.4711 48.8133 29.1263 48.6704 28.8721 48.4161C28.6179 48.1618 28.4751 47.817 28.475 47.4575V16.2713C28.475 15.9116 28.6178 15.5667 28.8721 15.3123C29.1264 15.058 29.4713 14.9151 29.8309 14.915H42.3306C48.4884 14.915 52.5297 18.2509 52.5297 23.3722C52.5297 26.9669 49.8109 30.185 46.3475 30.7484V30.9363C51.0628 31.4534 54.2375 34.7187 54.2375 39.2291ZM41.0313 19.2134H33.8634V29.3384H39.9009C44.5678 29.3384 47.1416 27.4591 47.1416 24.0997C47.1416 20.9519 44.9281 19.2134 41.0313 19.2134ZM33.8637 33.3559V44.5138H41.2956C46.1544 44.5138 48.7288 42.5641 48.7288 38.8997C48.7288 35.2347 46.0828 33.3553 40.9831 33.3553H33.8637V33.3559Z" fill="#7E13F8"/>
</g>
<defs>
<clipPath id="clip0_819_178">
<rect width="80" height="63.75" fill="white"/>
</clipPath>
</defs>
</svg>
