<svg width="80" height="79" viewBox="0 0 80 79" fill="none" xmlns="http://www.w3.org/2000/svg">
<path d="M66.7188 0H13.2812C5.94622 0 0 5.94622 0 13.2812V64.7188C0 72.0538 5.94622 78 13.2812 78H66.7188C74.0538 78 80 72.0538 80 64.7188V13.2812C80 5.94622 74.0538 0 66.7188 0Z" fill="#470137"/>
<path d="M42.0568 20.5125L32.0747 36.9884L42.7543 54.4837C42.8231 54.6062 42.8422 54.75 42.8081 54.8862C42.7915 54.9443 42.7559 54.9587 42.7012 54.9609L42.6406 54.9599L42.5668 54.9581C42.5268 54.9581 42.4822 54.9599 42.4325 54.9681H34.7325L34.5812 54.9656C34.1662 54.9546 33.8672 54.8953 33.685 54.5909C32.9725 53.2029 32.2569 51.8166 31.5381 50.4318C30.8951 49.1968 30.2347 47.9709 29.5568 46.7546L29.2575 46.219C28.4468 44.7782 27.6507 43.3291 26.8693 41.8721H26.8156C26.0941 43.3139 25.3516 44.7451 24.5884 46.1653C23.8186 47.5965 23.0583 49.0187 22.3075 50.4318C21.5561 51.8458 20.7869 53.2501 20 54.6446C19.8734 54.929 19.6631 54.9884 19.3703 54.9981L19.2484 55H11.8962L11.8643 55.0009L11.7593 55.0103C11.7009 55.0137 11.6659 55.0012 11.6547 54.9131C11.6346 54.7822 11.6633 54.6486 11.7353 54.5375L22.0928 37.525L12.0034 20.4593C11.8963 20.3168 11.8784 20.2006 11.9497 20.1106C11.9893 20.0647 12.039 20.0287 12.0949 20.0054C12.1508 19.9821 12.2114 19.9721 12.2718 19.9762H19.8387C20.0037 19.9673 20.1687 19.9948 20.3218 20.0568C20.45 20.1296 20.5603 20.2306 20.6437 20.3521C21.2877 21.7834 22.0033 23.2144 22.7906 24.6453C23.5717 26.0669 24.3678 27.4802 25.1787 28.885C25.9772 30.268 26.7202 31.6823 27.4059 33.1246H27.4597C28.1624 31.6827 28.8869 30.2515 29.6331 28.8315C30.366 27.4361 31.1173 26.0317 31.8868 24.6184C32.6465 23.2234 33.3889 21.8191 34.114 20.4059C34.1553 20.2734 34.229 20.1534 34.3287 20.0568C34.4613 19.9897 34.6102 19.9617 34.7581 19.9762H41.7884C41.853 19.9601 41.9212 19.9654 41.9825 19.9913C42.0439 20.0173 42.0951 20.0624 42.1286 20.12C42.1621 20.1776 42.176 20.2445 42.1682 20.3107C42.1603 20.3768 42.1313 20.4386 42.0853 20.4868L42.0568 20.5125ZM57.8287 55.6603L57.4587 55.6643C54.9885 55.7021 52.541 55.1888 50.294 54.1618C48.2009 53.1931 46.4511 51.6117 45.2762 49.6268C44.0914 47.6591 43.4836 45.2076 43.4528 42.2721L43.4515 42.0331C43.4314 39.57 44.0609 37.1451 45.2765 35.0028C46.4932 32.8824 48.2668 31.1354 50.4053 29.9509L50.5893 29.8509C52.9143 28.5628 55.7229 27.9187 59.015 27.9187L59.1587 27.9203L59.3231 27.9256L59.5075 27.9337L59.7125 27.9456L60.0568 27.97L60.4468 28.0012L60.7322 28.0262V17.4537C60.7322 17.2035 60.8394 17.0783 61.054 17.0781H67.8162C67.8599 17.0718 67.9045 17.0758 67.9464 17.0898C67.9884 17.1037 68.0264 17.1272 68.0577 17.1585C68.0889 17.1897 68.1124 17.2278 68.1264 17.2697C68.1404 17.3116 68.1444 17.3562 68.1381 17.4V49.1171C68.1381 49.6498 68.1587 50.2232 68.2 50.8371L68.3 52.2293L68.3531 53.0346C68.3597 53.1462 68.3325 53.2571 68.275 53.3529C68.2175 53.4487 68.1324 53.5249 68.0309 53.5715C66.2864 54.299 64.4694 54.8386 62.6106 55.1812C61.0326 55.4726 59.4332 55.6329 57.8287 55.6603ZM60.7322 49.0096V34.3587C60.4421 34.2801 60.146 34.2263 59.8468 34.1978C59.4812 34.1608 59.114 34.1429 58.7465 34.144C57.4442 34.1309 56.1572 34.4251 54.99 35.0028C53.8532 35.5683 52.8824 36.4189 52.1725 37.4715C51.4639 38.5078 51.0976 39.8609 51.0734 41.5309L51.0722 41.7112C51.0462 42.881 51.2372 44.0454 51.6356 45.1456C51.9601 46.0322 52.4729 46.8378 53.1387 47.5071C53.7759 48.1229 54.5474 48.5822 55.3925 48.8487C56.2851 49.1376 57.218 49.2827 58.1562 49.2784C58.6568 49.2784 59.1219 49.2604 59.5515 49.2243C59.8942 49.1985 60.2339 49.142 60.5665 49.0556L60.7322 49.0096Z" fill="#FF61F6"/>
</svg>
