<svg width="33" height="41" viewBox="0 0 33 41" fill="none" xmlns="http://www.w3.org/2000/svg">
<path d="M16.8543 19.2143C14.7171 17.6343 11.5143 14.8714 2.33143 14.8714V34.6543C11.5143 34.6543 14.7171 37.4171 16.8543 38.9971M16.8543 19.2143V38.9971M16.8543 19.2143C18.9914 17.6343 22.1943 14.8714 31.3771 14.8714V34.6543C22.1943 34.6543 18.9914 37.4171 16.8543 38.9971M22.5286 2.15429V9.10286M27.6057 2H8.52857C7.99558 1.99935 7.47304 2.1478 7.02 2.42857L2 5.55429L7.02 8.67429C7.47304 8.95506 7.99558 9.10351 8.52857 9.10286H27.6057C28.0804 9.11633 28.5529 9.03447 28.9954 8.86212C29.4379 8.68977 29.8413 8.43044 30.1818 8.09946C30.5223 7.76848 30.793 7.37258 30.9778 6.93516C31.1626 6.49775 31.2579 6.02772 31.2579 5.55286C31.2579 5.078 31.1626 4.60797 30.9778 4.17055C30.793 3.73314 30.5223 3.33724 30.1818 3.00626C29.8413 2.67528 29.4379 2.41595 28.9954 2.2436C28.5529 2.07125 28.0804 1.98653 27.6057 2Z" stroke="#02D28F" stroke-width="3" stroke-linecap="round" stroke-linejoin="round"/>
</svg>
