<svg width="60" height="60" viewBox="0 0 60 60" fill="none" xmlns="http://www.w3.org/2000/svg">
<path d="M16.3333 43.6667C15.4167 43.6667 14.6322 43.3406 13.98 42.6883C13.3278 42.0361 13.0011 41.2511 13 40.3333V20.3333C13 19.4167 13.3267 18.6322 13.98 17.98C14.6333 17.3278 15.4178 17.0011 16.3333 17H43C43.9167 17 44.7017 17.3267 45.355 17.98C46.0083 18.6333 46.3344 19.4178 46.3333 20.3333V40.3333C46.3333 41.25 46.0072 42.035 45.355 42.6883C44.7028 43.3417 43.9178 43.6678 43 43.6667H16.3333ZM29.6667 32L16.3333 23.6667V40.3333H43V23.6667L29.6667 32ZM29.6667 28.6667L43 20.3333H16.3333L29.6667 28.6667ZM16.3333 23.6667V20.3333V40.3333V23.6667Z" fill="#02D28F"/>
</svg>
