<svg width="60" height="60" viewBox="0 0 60 60" fill="none" xmlns="http://www.w3.org/2000/svg">
<path d="M20.9 18.3333C21 19.8167 21.25 21.2667 21.65 22.65L19.65 24.65C18.9667 22.65 18.5333 20.5333 18.3833 18.3333H20.9ZM37.3333 38.3667C38.75 38.7667 40.2 39.0167 41.6667 39.1167V41.6C39.4667 41.45 37.35 41.0167 35.3333 40.35L37.3333 38.3667ZM22.5 15H16.6667C15.75 15 15 15.75 15 16.6667C15 32.3167 27.6833 45 43.3333 45C44.25 45 45 44.25 45 43.3333V37.5167C45 36.6 44.25 35.85 43.3333 35.85C41.2667 35.85 39.25 35.5167 37.3833 34.9C37.2183 34.8384 37.0427 34.81 36.8667 34.8167C36.4333 34.8167 36.0167 34.9833 35.6833 35.3L32.0167 38.9667C27.2924 36.5506 23.4494 32.7076 21.0333 27.9833L24.7 24.3167C25.1667 23.85 25.3 23.2 25.1167 22.6167C24.4855 20.6965 24.1648 18.6879 24.1667 16.6667C24.1667 15.75 23.4167 15 22.5 15Z" fill="#02D28F"/>
</svg>
